<svg xmlns="http://www.w3.org/2000/svg" width="154" height="582" viewBox="0 0 154 582" fill="none">
  <path d="M-86.5506 -22.8505C-79.4207 -24.954 -68.429 -25.0749 -59.6264 -20.0328C101.169 53.0634 -55.3488 77.5967 -22.636 165.277C-8.00131 183.305 16.596 189.248 36.0962 202.854C124.483 251.18 -44.8015 319.163 71.398 367.925C138.727 400.061 180.441 403.336 134.364 473.631C101.347 527.389 86.09 569.587 66.6268 579.299C37.2874 601.821 -139.981 473.377 -152.576 471.55C-304.028 379.633 -339.738 394.81 -291.279 313.046C-240.929 211.549 -176.219 123.52 -124.337 23.965C-113.15 6.25137 -109.668 -15.2566 -86.5506 -22.8505Z" fill="#FE9378"/>
</svg>