<svg xmlns="http://www.w3.org/2000/svg" width="62" height="375" viewBox="0 0 62 375" fill="none">
  <path d="M-23.7137 0.865373C-21.1732 -0.435761 -17.2566 -0.510545 -14.1201 2.60828C43.1748 47.8224 -12.5959 62.9977 -0.93959 117.233C4.27509 128.384 13.0396 132.06 19.988 140.476C51.4821 170.369 -8.83763 212.42 32.5668 242.582C56.5576 262.46 71.4212 264.486 55.0029 307.967C43.2383 341.22 37.8019 367.322 30.8667 373.329C20.4124 387.26 -42.7522 307.81 -47.24 306.68C-101.206 249.824 -113.93 259.212 -96.6629 208.636C-78.7221 145.855 -55.6645 91.4038 -37.1779 29.8234C-33.1915 18.8665 -31.9508 5.56263 -23.7137 0.865373Z" fill="#FE9378"/>
</svg>