<svg width="146" height="837" viewBox="0 0 146 837" fill="none" xmlns="http://www.w3.org/2000/svg">
<path d="M145.232 392.037L225.712 407.921L175.345 663.117L94.8647 647.233L145.232 392.037Z" fill="#ECA903"/>
<path d="M113.697 385.813L194.178 401.697L143.81 656.894L63.3299 641.009L113.697 385.813Z" fill="#ECA903"/>
<path d="M157.872 448.259L273.152 471.011L201.006 836.55L85.727 813.798L157.872 448.259Z" fill="#ECA903"/>
<path d="M204.449 92.0017L284.929 107.886L224.347 414.839L143.867 398.954L204.449 92.0017Z" fill="#ECA903"/>
<path d="M191.463 -168.556L271.943 -152.672L221.576 102.525L141.096 86.6408L191.463 -168.556Z" fill="#ECA903"/>
<path d="M142.452 79.7664L222.933 95.6505L162.35 402.603L81.87 386.719L142.452 79.7664Z" fill="#ECA903"/>
</svg>
