<svg xmlns="http://www.w3.org/2000/svg" width="1440" height="468" viewBox="0 0 1440 468" fill="none">
  <path d="M0 0H1471V468H1439.84L1414.58 429.959L1389.32 468L1364.06 429.959L1338.8 468L1313.54 429.959L1288.28 468L1263.02 429.959L1237.76 468L1212.5 429.959L1187.24 468L1161.98 429.959L1136.72 468L1111.46 429.959L1086.2 468L1060.94 429.959L1035.68 468L1010.42 429.959L985.156 468L959.896 429.959L934.635 468L909.375 429.959L884.114 468L858.854 429.959L833.594 468L808.333 429.959L783.073 468L757.812 429.959L732.552 468L707.292 429.959L682.031 468L656.771 429.959L631.51 468L606.25 429.959L580.989 468L555.729 429.959L530.469 468L505.208 429.959L479.948 468L454.687 429.959L429.427 468L404.167 429.959L378.906 468L353.646 429.959L328.385 468L303.125 429.959L277.865 468L252.604 429.959L227.344 468L202.083 429.959L176.823 468L151.562 429.959L126.302 468L101.042 429.959L75.7812 468L50.5208 429.959L25.2604 468L0 429.959V0Z" fill="#F5E0D9"/>
</svg>