<svg xmlns="http://www.w3.org/2000/svg" width="88" height="23" viewBox="0 0 88 23" fill="none">
  <path d="M35.5152 11.8169L40.1971 3.68504C40.2626 3.603 40.3734 3.47198 40.5302 3.29076C40.6869 3.10953 40.9281 3.01953 41.2569 3.01953H42.9326C43.1083 3.02191 43.276 3.09284 43.4001 3.21717C43.5242 3.3415 43.5948 3.50939 43.5969 3.68504V19.6035C43.5948 19.7793 43.5241 19.9474 43.3997 20.0718C43.2753 20.1961 43.1073 20.2669 42.9314 20.269H40.9355C40.7596 20.2669 40.5915 20.1961 40.4672 20.0718C40.3428 19.9474 40.272 19.7793 40.27 19.6035V9.96853L37.0667 15.513C36.9693 15.6627 36.8533 15.7993 36.7214 15.9196C36.5675 16.0615 36.3637 16.1368 36.1544 16.129H34.8754C34.6664 16.1369 34.4627 16.0616 34.3091 15.9196C34.1772 15.7993 34.0612 15.6627 33.9638 15.513L30.7605 9.96853V19.6035C30.7585 19.7792 30.6878 19.9472 30.5636 20.0715C30.4393 20.1959 30.2714 20.2667 30.0956 20.269H28.0997C27.9237 20.2671 27.7555 20.1963 27.631 20.072C27.5065 19.9476 27.4357 19.7794 27.4336 19.6035V3.68504C27.4357 3.50918 27.5064 3.3411 27.6308 3.21674C27.7552 3.09238 27.9232 3.0216 28.0991 3.01953H29.7742C30.1032 3.01953 30.3456 3.10994 30.5016 3.29076C30.6571 3.47443 30.7685 3.603 30.834 3.68504L35.5152 11.8169Z" fill="#203A31"/>
  <path d="M45.8905 10.6096C45.9756 10.2159 46.13 9.84047 46.3467 9.50087C46.6145 9.07376 46.9566 8.69804 47.3569 8.39148C47.8398 8.02115 48.3811 7.73395 48.9585 7.54168C49.5912 7.32005 50.3259 7.20923 51.1626 7.20923C51.9993 7.20923 52.7544 7.32005 53.4279 7.54168C54.0673 7.74408 54.6585 8.07539 55.1649 8.51515C55.6604 8.95745 56.0447 9.51037 56.2865 10.129C56.5489 10.778 56.6804 11.5213 56.6808 12.3588V19.6036C56.6787 19.7794 56.6079 19.9475 56.4836 20.0719C56.3592 20.1962 56.1911 20.267 56.0153 20.2691H54.1424C53.9667 20.2668 53.7987 20.196 53.6745 20.0716C53.5503 19.9473 53.4796 19.7793 53.4775 19.6036V18.7905C53.1322 19.2668 52.6353 19.6733 51.9867 20.0101C51.3381 20.3468 50.5126 20.5152 49.5101 20.5152C48.8663 20.525 48.2251 20.4292 47.6122 20.2317C47.0931 20.0661 46.6146 19.7933 46.2077 19.4309C45.8329 19.091 45.5346 18.6753 45.3328 18.2113C45.1243 17.7251 45.02 17.2005 45.0267 16.6715C45.0267 15.5376 45.4291 14.6505 46.234 14.0101C47.0389 13.3697 48.1148 12.9343 49.4618 12.7041L53.4787 12.0141C53.4787 11.3407 53.2569 10.8641 52.8132 10.5845C52.3695 10.305 51.8185 10.1654 51.1602 10.1658C50.7495 10.1658 50.4293 10.2233 50.1995 10.3384C49.9573 10.4629 49.7339 10.621 49.5359 10.808C49.4168 10.9208 49.2793 11.0123 49.1293 11.0786C48.9999 11.1293 48.8618 11.1544 48.7228 11.1527H46.4312C46.2781 11.157 46.129 11.1044 46.0124 11.0052C45.9562 10.9579 45.9149 10.8955 45.8933 10.8253C45.8717 10.7552 45.8707 10.6803 45.8905 10.6096ZM50.0061 17.5586C50.5128 17.5671 51.0172 17.4878 51.4969 17.3242C51.8993 17.1871 52.2716 16.9739 52.5934 16.696C52.8758 16.4511 53.1026 16.1486 53.2583 15.8088C53.404 15.4919 53.4798 15.1474 53.4806 14.7986V14.5537L50.1291 15.1452C49.4557 15.2603 48.971 15.4288 48.675 15.6509C48.5331 15.753 48.4184 15.8884 48.3411 16.0452C48.2638 16.2021 48.2263 16.3755 48.2318 16.5503C48.2318 16.8952 48.4083 17.1497 48.7614 17.3137C49.1533 17.4857 49.5782 17.5693 50.0061 17.5586Z" fill="#203A31"/>
  <path d="M63.7809 1.91091H61.4396C61.2843 1.90643 61.1295 1.93157 60.9835 1.98499C60.861 2.03397 60.708 2.16867 60.528 2.37928L58.4335 4.88949C58.3602 4.98081 58.3174 5.09278 58.311 5.20969C58.311 5.47296 58.4425 5.60439 58.7053 5.60398H60.0608C60.3235 5.60398 60.5292 5.56357 60.6768 5.48153C60.8266 5.39803 60.9672 5.2989 61.0961 5.18581L64.1268 2.69703C64.1663 2.6587 64.1975 2.61269 64.2186 2.56184C64.2396 2.51098 64.2501 2.45636 64.2492 2.40132C64.2488 2.07479 64.0927 1.91132 63.7809 1.91091Z" fill="#203A31"/>
  <path d="M60.6507 7.45508H58.7803C58.6044 7.45714 58.4363 7.52792 58.312 7.65229C58.1876 7.77665 58.1168 7.94473 58.1147 8.12059V19.6033C58.1168 19.7791 58.1876 19.9472 58.312 20.0716C58.4363 20.1959 58.6044 20.2667 58.7803 20.2688H60.6531C60.829 20.2667 60.9971 20.1959 61.1214 20.0716C61.2458 19.9472 61.3166 19.7791 61.3186 19.6033V8.12059C61.3166 7.94473 61.2458 7.77665 61.1214 7.65229C60.9971 7.52792 60.829 7.45714 60.6531 7.45508H60.6507Z" fill="#203A31"/>
  <path d="M67.994 20.0716C67.883 19.9465 67.7916 19.8053 67.7228 19.6529L62.7697 8.29263C62.7523 8.23698 62.744 8.17888 62.7452 8.12059C62.7473 7.94473 62.8181 7.77665 62.9424 7.65229C63.0668 7.52792 63.2349 7.45714 63.4107 7.45508H65.2585C65.5034 7.45508 65.6842 7.52079 65.801 7.65222C65.9073 7.77178 65.9983 7.90425 66.0716 8.04651L69.3489 15.6855L72.6263 8.04651C72.6996 7.90411 72.7907 7.77162 72.8975 7.65222C73.012 7.5212 73.1932 7.45508 73.4393 7.45508H75.2877C75.4636 7.45714 75.6316 7.52792 75.756 7.65229C75.8804 7.77665 75.9512 7.94473 75.9532 8.12059C75.9541 8.17886 75.9458 8.23692 75.9287 8.29263L70.975 19.6529C70.9063 19.8052 70.815 19.9464 70.7044 20.0716C70.5893 20.2035 70.4085 20.2692 70.162 20.2688H68.5359C68.2897 20.2688 68.1085 20.2033 67.994 20.0716Z" fill="#203A31"/>
  <path d="M75.9035 13.8619C75.8974 12.9781 76.0389 12.0995 76.3223 11.2623C76.5818 10.4836 76.9921 9.7636 77.5296 9.14332C78.0587 8.54122 78.7096 8.05832 79.4392 7.72658C80.187 7.38127 81.0209 7.20882 81.9409 7.20923C82.8609 7.20964 83.6946 7.37801 84.4419 7.71433C85.1631 8.03283 85.8126 8.49367 86.3515 9.06923C86.8844 9.64859 87.2987 10.3266 87.5711 11.0652C87.8585 11.8333 88.0037 12.6474 87.9997 13.4676V14.577C87.9974 14.7528 87.9266 14.9207 87.8022 15.0449C87.6779 15.1691 87.5099 15.2398 87.3342 15.2419H79.1068C79.0992 15.589 79.1797 15.9323 79.3407 16.2399C79.4947 16.5253 79.7093 16.7735 79.9694 16.9672C80.2433 17.17 80.5524 17.3203 80.8811 17.4105C81.2257 17.5091 81.5824 17.559 81.9409 17.5586C82.4662 17.5586 82.8933 17.5052 83.2223 17.3982C83.5144 17.3098 83.7893 17.1723 84.0354 16.9917C84.1732 16.8861 84.3218 16.7952 84.4786 16.7205C84.6285 16.6657 84.7876 16.6408 84.947 16.647H86.9184C87.0982 16.6469 87.2709 16.7175 87.399 16.8435C87.4646 16.9014 87.5155 16.9741 87.5475 17.0555C87.5794 17.137 87.5915 17.2249 87.5827 17.3119C87.5656 17.5421 87.4382 17.8378 87.2007 18.1991C86.9631 18.5603 86.6062 18.9129 86.1299 19.257C85.6531 19.6019 85.0658 19.8976 84.3678 20.1442C83.6699 20.3907 82.8609 20.5131 81.9409 20.5115C81.0201 20.5115 80.1862 20.3513 79.4392 20.0309C78.7089 19.7229 78.0565 19.2559 77.5296 18.6638C76.9905 18.0492 76.58 17.3329 76.3223 16.557C76.0427 15.7448 75.9031 14.8464 75.9035 13.8619ZM81.9409 10.1658C81.4641 10.1658 81.0574 10.2356 80.7207 10.3752C80.4059 10.5011 80.1176 10.6851 79.8709 10.9176C79.6484 11.1277 79.4684 11.3786 79.3407 11.6566C79.2252 11.9025 79.1464 12.1641 79.1068 12.4329H84.6782C84.6413 12.169 84.5798 11.9091 84.4946 11.6566C84.4016 11.3813 84.2504 11.1293 84.0513 10.9176C83.8224 10.6805 83.5451 10.4955 83.2382 10.3752C82.8986 10.2364 82.4662 10.1666 81.9409 10.1658Z" fill="#203A31"/>
  <path d="M19.7646 5.99936C19.7653 6.54063 19.9806 7.05954 20.3634 7.44222C20.7462 7.82491 21.2652 8.0401 21.8065 8.04059C21.9731 8.04062 22.139 8.02006 22.3006 7.97936C21.9185 6.69869 21.309 5.49727 20.5012 4.43262C20.271 4.62372 20.0856 4.86316 19.9584 5.13393C19.8311 5.4047 19.7649 5.70016 19.7646 5.99936Z" fill="#203A31"/>
  <path d="M11.5911 2.26041C12.2065 2.2599 12.8089 2.0832 13.327 1.75121C13.8452 1.41921 14.2575 0.945803 14.5152 0.386938C12.6007 -0.128979 10.5839 -0.128979 8.66943 0.386938C8.9268 0.945518 9.33868 1.41876 9.8564 1.75074C10.3741 2.08273 10.9761 2.25958 11.5911 2.26041Z" fill="#203A31"/>
  <path d="M17.8485 5.99958C17.8486 5.43194 17.971 4.87099 18.2073 4.35489C18.4437 3.8388 18.7884 3.37967 19.2181 3.00875C18.3598 2.20768 17.3809 1.54655 16.3173 1.04956C15.9237 1.9777 15.2656 2.76943 14.425 3.32601C13.5844 3.88259 12.5986 4.17938 11.5904 4.17938C10.5823 4.17938 9.59646 3.88259 8.75588 3.32601C7.9153 2.76943 7.25717 1.9777 6.86359 1.04956C5.79993 1.54655 4.82104 2.20768 3.96276 3.00875C4.6313 3.58575 5.08747 4.36993 5.25856 5.2363C5.42965 6.10268 5.30582 7.00139 4.9068 7.78921C4.50778 8.57703 3.85654 9.20862 3.05687 9.58333C2.2572 9.95803 1.35511 10.0543 0.494386 9.85673C0.366274 10.9336 0.395354 12.0233 0.580713 13.0918C1.47092 12.528 2.60113 12.1184 3.96888 11.9941C4.11513 11.4406 4.30806 10.9005 4.54562 10.3796C5.46889 8.37876 7.44093 5.99406 11.5907 5.99406C15.7405 5.99406 17.7132 8.38183 18.6353 10.3796C18.8734 10.8995 19.0667 11.4388 19.2132 11.9916C20.5987 12.1141 21.7112 12.5255 22.602 13.0894C22.7865 12.0208 22.8156 10.9312 22.6883 9.85428C22.1088 9.98691 21.5069 9.98717 20.9273 9.85506C20.3477 9.72295 19.8053 9.46186 19.3405 9.09121C18.8757 8.72056 18.5005 8.24989 18.2427 7.7142C17.9849 7.17852 17.8512 6.59161 17.8516 5.99712L17.8485 5.99958Z" fill="#28D2C5"/>
  <path d="M3.41641 5.99924C3.41675 5.69986 3.35109 5.40408 3.2241 5.13297C3.09711 4.86185 2.91193 4.62206 2.68172 4.43066C1.87389 5.49532 1.26437 6.69674 0.882324 7.97741C1.18318 8.05417 1.49763 8.06101 1.80154 7.9974C2.10545 7.93379 2.39076 7.80142 2.63558 7.61044C2.8804 7.41947 3.07823 7.17496 3.2139 6.89567C3.34957 6.61638 3.41947 6.30973 3.41825 5.99924H3.41641Z" fill="#ECA902"/>
  <path d="M17.2835 14.5629H17.0252C17.0252 14.5457 17.0056 12.9355 16.2733 11.3927C15.3696 9.4898 13.8378 8.5647 11.5909 8.5647C9.34391 8.5647 7.81207 9.4898 6.90839 11.3927C6.1737 12.9361 6.15656 14.5457 6.15594 14.5629H5.88655C3.72716 14.5819 2.31654 15.1329 1.4043 15.7757C2.29011 17.7349 3.72215 19.397 5.52875 20.5629C7.33534 21.7287 9.43983 22.3488 11.5899 22.3488C13.74 22.3488 15.8445 21.7287 17.6511 20.5629C19.4577 19.397 20.8898 17.7349 21.7756 15.7757C20.8627 15.1347 19.4496 14.5806 17.2835 14.5629ZM11.5896 15.8908C11.2702 15.891 10.9578 15.7963 10.6922 15.6189C10.4265 15.4415 10.2194 15.1893 10.097 14.8942C9.97469 14.5991 9.94262 14.2744 10.0049 13.961C10.0671 13.6477 10.2209 13.3598 10.4467 13.1339C10.6726 12.908 10.9604 12.7541 11.2737 12.6917C11.587 12.6293 11.9118 12.6613 12.207 12.7835C12.5021 12.9057 12.7544 13.1127 12.9319 13.3784C13.1094 13.644 13.2041 13.9563 13.2041 14.2757C13.204 14.7036 13.034 15.1139 12.7315 15.4165C12.429 15.7191 12.0187 15.8893 11.5909 15.8896L11.5896 15.8908Z" fill="#203A31"/>
</svg>