<svg width="68" height="18" viewBox="0 0 68 18" fill="none" xmlns="http://www.w3.org/2000/svg">
<path d="M27.0843 9.1183L30.6971 2.84337C30.7476 2.78007 30.8331 2.67897 30.9541 2.53912C31.075 2.39928 31.2612 2.32983 31.5149 2.32983H32.8079C32.9435 2.33167 33.0729 2.3864 33.1687 2.48234C33.2644 2.57828 33.3189 2.70783 33.3205 2.84337V15.1268C33.3189 15.2625 33.2643 15.3922 33.1683 15.4881C33.0724 15.5841 32.9427 15.6387 32.807 15.6403H31.2668C31.1311 15.6387 31.0014 15.5841 30.9055 15.4881C30.8095 15.3922 30.7549 15.2625 30.7533 15.1268V7.69201L28.2815 11.9704C28.2064 12.0859 28.1168 12.1913 28.015 12.2841C27.8963 12.3937 27.739 12.4518 27.5776 12.4457H26.5906C26.4293 12.4518 26.2722 12.3937 26.1536 12.2841C26.0518 12.1913 25.9623 12.0859 25.8872 11.9704L23.4154 7.69201V15.1268C23.4138 15.2624 23.3592 15.392 23.2634 15.488C23.1675 15.5839 23.0379 15.6386 22.9023 15.6403H21.3622C21.2264 15.6388 21.0966 15.5843 21.0005 15.4883C20.9044 15.3923 20.8497 15.2626 20.8481 15.1268V2.84337C20.8497 2.70767 20.9044 2.57797 21.0003 2.48201C21.0963 2.38605 21.226 2.33143 21.3617 2.32983H22.6543C22.9081 2.32983 23.0952 2.3996 23.2155 2.53912C23.3355 2.68086 23.4215 2.78007 23.4721 2.84337L27.0843 9.1183Z" fill="#203A31"/>
<path d="M35.0902 8.18691C35.1558 7.88309 35.275 7.59338 35.4422 7.33133C35.6488 7.00175 35.9128 6.71182 36.2217 6.47527C36.5943 6.18951 37.012 5.96789 37.4576 5.81953C37.9458 5.6485 38.5127 5.56299 39.1583 5.56299C39.804 5.56299 40.3867 5.6485 40.9064 5.81953C41.3998 5.97571 41.8559 6.23136 42.2467 6.5707C42.6291 6.912 42.9256 7.33866 43.1122 7.81605C43.3147 8.31683 43.4161 8.89038 43.4164 9.53667V15.127C43.4148 15.2627 43.3602 15.3924 43.2643 15.4884C43.1683 15.5844 43.0386 15.639 42.9029 15.6406H41.4577C41.3221 15.6389 41.1925 15.5842 41.0967 15.4882C41.0008 15.3923 40.9462 15.2627 40.9446 15.127V14.4996C40.6782 14.8672 40.2947 15.1809 39.7943 15.4407C39.2938 15.7006 38.6568 15.8305 37.8832 15.8305C37.3864 15.838 36.8916 15.7642 36.4187 15.6118C36.0181 15.484 35.6489 15.2735 35.3349 14.9938C35.0457 14.7315 34.8155 14.4107 34.6598 14.0527C34.4989 13.6775 34.4184 13.2727 34.4236 12.8645C34.4236 11.9896 34.7341 11.305 35.3552 10.8108C35.9763 10.3167 36.8066 9.98076 37.8459 9.80313L40.9456 9.27069C40.9456 8.75101 40.7744 8.38329 40.432 8.16754C40.0897 7.9518 39.6645 7.84408 39.1565 7.8444C38.8396 7.8444 38.5925 7.88881 38.4152 7.97762C38.2283 8.07371 38.0559 8.1957 37.9031 8.33998C37.8112 8.427 37.7051 8.49763 37.5894 8.5488C37.4895 8.58788 37.383 8.60729 37.2757 8.60597H35.5073C35.3893 8.60924 35.2741 8.56868 35.1842 8.49211C35.1409 8.45564 35.109 8.40747 35.0923 8.35334C35.0756 8.29922 35.0749 8.24144 35.0902 8.18691ZM38.2659 13.5491C38.657 13.5556 39.0462 13.4944 39.4163 13.3682C39.7269 13.2624 40.0141 13.0978 40.2624 12.8834C40.4804 12.6945 40.6553 12.4611 40.7755 12.1989C40.8879 11.9543 40.9464 11.6885 40.947 11.4193V11.2304L38.3609 11.6867C37.8412 11.7756 37.4672 11.9056 37.2388 12.077C37.1293 12.1558 37.0408 12.2603 36.9812 12.3813C36.9215 12.5023 36.8925 12.6361 36.8968 12.771C36.8968 13.0371 37.033 13.2335 37.3054 13.3601C37.6079 13.4928 37.9358 13.5573 38.2659 13.5491Z" fill="#203A31"/>
<path d="M48.8956 1.47451H47.089C46.9691 1.47106 46.8496 1.49046 46.737 1.53168C46.6425 1.56947 46.5244 1.67341 46.3855 1.83593L44.7693 3.77293C44.7128 3.84339 44.6797 3.9298 44.6748 4.02001C44.6748 4.22316 44.7762 4.32458 44.9791 4.32426H46.025C46.2277 4.32426 46.3865 4.29308 46.5003 4.22978C46.6159 4.16534 46.7244 4.08885 46.8239 4.00159L49.1625 2.08113C49.193 2.05155 49.2171 2.01605 49.2333 1.9768C49.2496 1.93756 49.2576 1.89541 49.257 1.85294C49.2567 1.60097 49.1362 1.47483 48.8956 1.47451Z" fill="#FF6D6A"/>
<path d="M46.4798 5.75269H45.0365C44.9008 5.75428 44.7711 5.8089 44.6751 5.90486C44.5792 6.00083 44.5245 6.13052 44.5229 6.26623V15.1268C44.5245 15.2625 44.5792 15.3922 44.6751 15.4882C44.7711 15.5841 44.9008 15.6388 45.0365 15.6404H46.4817C46.6174 15.6388 46.7471 15.5841 46.843 15.4882C46.939 15.3922 46.9936 15.2625 46.9952 15.1268V6.26623C46.9936 6.13052 46.939 6.00083 46.843 5.90486C46.7471 5.8089 46.6174 5.75428 46.4817 5.75269H46.4798Z" fill="#203A31"/>
<path d="M52.1465 15.4882C52.0608 15.3917 51.9903 15.2827 51.9372 15.1651L48.1152 6.39898C48.1018 6.35604 48.0954 6.31121 48.0963 6.26623C48.0979 6.13052 48.1525 6.00083 48.2485 5.90486C48.3444 5.8089 48.4741 5.75428 48.6098 5.75269H50.0356C50.2246 5.75269 50.3641 5.8034 50.4542 5.90481C50.5363 5.99707 50.6065 6.09929 50.663 6.20906L53.192 12.1037L55.721 6.20906C55.7775 6.09918 55.8479 5.99694 55.9303 5.90481C56.0186 5.80371 56.1584 5.75269 56.3484 5.75269H57.7747C57.9104 5.75428 58.0401 5.8089 58.136 5.90486C58.232 6.00083 58.2866 6.13052 58.2882 6.26623C58.2889 6.31119 58.2825 6.35599 58.2693 6.39898L54.4468 15.1651C54.3937 15.2826 54.3233 15.3916 54.238 15.4882C54.1492 15.59 54.0096 15.6407 53.8194 15.6404H52.5646C52.3747 15.6404 52.2348 15.5898 52.1465 15.4882Z" fill="#203A31"/>
<path d="M58.2497 10.6965C58.2449 10.0145 58.3541 9.33653 58.5728 8.69053C58.7731 8.08966 59.0896 7.53406 59.5045 7.05542C59.9127 6.59082 60.415 6.21819 60.978 5.9622C61.555 5.69574 62.1985 5.56267 62.9084 5.56299C63.6183 5.5633 64.2616 5.69322 64.8383 5.95275C65.3948 6.19852 65.896 6.55412 66.3118 6.99826C66.723 7.44532 67.0427 7.96854 67.2529 8.53841C67.4747 9.13118 67.5868 9.75936 67.5836 10.3923V11.2483C67.5819 11.3839 67.5272 11.5135 67.4313 11.6094C67.3353 11.7052 67.2057 11.7598 67.0701 11.7614H60.7215C60.7156 12.0292 60.7777 12.2941 60.9019 12.5315C61.0208 12.7517 61.1864 12.9433 61.3871 13.0927C61.5985 13.2492 61.837 13.3651 62.0906 13.4348C62.3565 13.5109 62.6318 13.5494 62.9084 13.5491C63.3137 13.5491 63.6433 13.5078 63.8972 13.4253C64.1226 13.357 64.3347 13.251 64.5246 13.1116C64.631 13.0301 64.7456 12.9599 64.8666 12.9023C64.9823 12.8601 65.105 12.8408 65.228 12.8456H66.7493C66.888 12.8455 67.0213 12.9 67.1202 12.9973C67.1708 13.0419 67.21 13.098 67.2347 13.1609C67.2593 13.2237 67.2687 13.2915 67.2619 13.3587C67.2487 13.5363 67.1504 13.7645 66.9671 14.0433C66.7838 14.322 66.5084 14.5941 66.1408 14.8596C65.7729 15.1258 65.3197 15.354 64.7811 15.5442C64.2425 15.7344 63.6183 15.8289 62.9084 15.8277C62.1978 15.8277 61.5544 15.704 60.978 15.4568C60.4144 15.2192 59.911 14.8588 59.5045 14.4018C59.0884 13.9276 58.7716 13.3749 58.5728 12.7762C58.3571 12.1494 58.2493 11.4562 58.2497 10.6965ZM62.9084 7.8444C62.5405 7.8444 62.2266 7.89825 61.9668 8.00597C61.7239 8.10314 61.5015 8.24513 61.3111 8.42455C61.1394 8.58666 61.0005 8.78025 60.9019 8.99478C60.8128 9.18457 60.752 9.3864 60.7215 9.59384H65.0206C64.9922 9.39017 64.9447 9.18961 64.8789 8.99478C64.8072 8.78236 64.6905 8.58787 64.5369 8.42455C64.3602 8.24157 64.1462 8.09881 63.9095 8.00597C63.6474 7.89888 63.3137 7.84503 62.9084 7.8444Z" fill="#203A31"/>
<path d="M14.9302 4.62938C14.9307 5.04706 15.0968 5.44747 15.3922 5.74277C15.6876 6.03806 16.0881 6.20412 16.5058 6.20449C16.6343 6.20452 16.7624 6.18865 16.887 6.15725C16.5922 5.16902 16.1219 4.24195 15.4985 3.42041C15.3209 3.56788 15.1779 3.75264 15.0797 3.96157C14.9814 4.17051 14.9304 4.39851 14.9302 4.62938Z" fill="#FF6D6A"/>
<path d="M8.62362 1.74424C9.09849 1.74385 9.56333 1.6075 9.96317 1.35132C10.363 1.09513 10.6812 0.729827 10.88 0.29858C9.40272 -0.0995266 7.8464 -0.0995266 6.36914 0.29858C6.56774 0.729607 6.88556 1.09478 7.28506 1.35096C7.68456 1.60713 8.14904 1.7436 8.62362 1.74424Z" fill="#FF6D6A"/>
<path d="M13.4517 4.62948C13.4518 4.19147 13.5463 3.75861 13.7286 3.36037C13.911 2.96212 14.177 2.60784 14.5086 2.32162C13.8463 1.70348 13.0909 1.19331 12.2702 0.809814C11.9665 1.52601 11.4586 2.13695 10.81 2.56643C10.1614 2.99591 9.40065 3.22493 8.62271 3.22493C7.84478 3.22493 7.08407 2.99591 6.43543 2.56643C5.7868 2.13695 5.27896 1.52601 4.97525 0.809814C4.15449 1.19331 3.39913 1.70348 2.73684 2.32162C3.25272 2.76686 3.60472 3.37197 3.73674 4.04051C3.86876 4.70904 3.77321 5.40253 3.46531 6.01045C3.1574 6.61837 2.65488 7.10574 2.03781 7.39488C1.42074 7.68401 0.724654 7.75828 0.0604744 7.60585C-0.0383826 8.4368 -0.0159433 9.27771 0.127088 10.1022C0.814014 9.6671 1.68614 9.35103 2.74156 9.25513C2.85441 8.82802 3.00329 8.41125 3.1866 8.00931C3.89904 6.46538 5.42076 4.62523 8.62295 4.62523C11.8251 4.62523 13.3473 6.46774 14.0588 8.00931C14.2426 8.41052 14.3918 8.82667 14.5048 9.25324C15.5739 9.34773 16.4324 9.66521 17.1198 10.1003C17.2621 9.27576 17.2846 8.43494 17.1864 7.60395C16.7392 7.7063 16.2747 7.7065 15.8275 7.60456C15.3802 7.50262 14.9617 7.30115 14.603 7.01513C14.2444 6.72912 13.9548 6.36593 13.7559 5.95257C13.557 5.53921 13.4538 5.08632 13.4541 4.62759L13.4517 4.62948Z" fill="#28D2C5"/>
<path d="M2.31578 4.62933C2.31603 4.39832 2.26537 4.17008 2.16738 3.96088C2.06939 3.75167 1.92649 3.56664 1.74885 3.41895C1.12549 4.24049 0.655155 5.16755 0.360352 6.15578C0.592509 6.21502 0.835148 6.22029 1.06966 6.17121C1.30417 6.12212 1.52433 6.01998 1.71325 5.87262C1.90216 5.72525 2.05482 5.53658 2.15951 5.32106C2.2642 5.10555 2.31814 4.86893 2.31719 4.62933H2.31578Z" fill="#ECA902"/>
<path d="M13.0159 11.2374H12.8165C12.8165 11.2241 12.8014 9.98163 12.2363 8.79108C11.539 7.32274 10.357 6.60889 8.62313 6.60889C6.88928 6.60889 5.70724 7.32274 5.00992 8.79108C4.44299 9.9821 4.42976 11.2241 4.42929 11.2374H4.22142C2.55513 11.252 1.46663 11.6772 0.762695 12.1733C1.44623 13.685 2.55126 14.9676 3.94532 15.8672C5.33937 16.7669 6.9633 17.2453 8.62242 17.2453C10.2815 17.2453 11.9055 16.7669 13.2995 15.8672C14.6936 14.9676 15.7986 13.685 16.4821 12.1733C15.7777 11.6786 14.6874 11.2511 13.0159 11.2374ZM8.62219 12.2621C8.37567 12.2622 8.13467 12.1892 7.92965 12.0523C7.72464 11.9154 7.56483 11.7208 7.47042 11.4931C7.37602 11.2653 7.35127 11.0147 7.39931 10.7729C7.44734 10.5312 7.566 10.309 7.74028 10.1347C7.91456 9.96036 8.13663 9.84161 8.3784 9.79348C8.62017 9.74535 8.87078 9.77001 9.09854 9.86432C9.3263 9.95864 9.52097 10.1184 9.65793 10.3233C9.7949 10.5283 9.86801 10.7693 9.86801 11.0158C9.86788 11.346 9.7367 11.6626 9.50328 11.8961C9.26986 12.1296 8.9533 12.2609 8.62313 12.2611L8.62219 12.2621Z" fill="#203A31"/>
</svg>
