<svg xmlns="http://www.w3.org/2000/svg" width="375" height="643" viewBox="0 0 375 643" fill="none">
  <path d="M0 0H375V643L358 613.956L341.299 643L334.859 613.956L315.54 643L309.101 613.956L289.782 643L283.342 613.956L264.024 643L257.584 613.956L238.265 643L231.826 613.956L212.507 643L206.067 613.956L186.748 643L180.309 613.956L160.99 643L154.55 613.956L135.232 643L128.792 613.956L109.473 643L103.034 613.956L83.7148 643L77.2752 613.956L57.9564 643L51.5168 613.956L34.198 643L25.7584 613.956L8.4396 643L0 613.956V0Z" fill="#F5E0D9"/>
</svg>