<svg xmlns="http://www.w3.org/2000/svg" width="287" height="509" viewBox="0 0 287 509" fill="none">
  <path d="M570.802 178.332C569.685 141.774 565.949 109.483 553.229 78.742C550.055 71.0974 546.415 63.6926 542.068 56.6265C520.481 21.4436 487.87 3.66794 446.875 0.188619C430.156 -1.23515 414.243 3.36469 399.33 10.9504C381.122 20.2027 366.189 33.388 353.004 48.5782C330.126 74.9561 313.671 105.075 299.424 136.548C274.576 191.329 234.136 232.717 183.473 265.092C170.226 273.57 155.569 279.479 140.614 284.608C109.282 295.278 79.8039 309.374 54.402 330.692C25.7886 354.716 6.88417 384.352 1.63265 421.367C-2.72348 452.198 2.01035 482.197 15.4409 510.129C54.3578 591.078 118.439 641.509 209.008 656.192C260.486 664.538 309.212 652.829 354.391 627.419C399.359 602.121 434.352 566.502 463.515 524.971C501.521 470.893 526.616 411.072 544.145 348.031C556.305 304.414 565.509 260.203 569.058 215.044C570.114 201.597 570.345 188.061 570.802 178.332Z" fill="#002938"/>
</svg>