<svg width="922" height="211" viewBox="0 0 922 211" fill="none" xmlns="http://www.w3.org/2000/svg">
<g clip-path="url(#clip0_840_128)">
<rect width="922" height="211" rx="10" fill="#203A31"/>
<path d="M599.997 -9.16442L925.798 144.461L848.13 316.625L521.489 157.882L599.997 -9.16442Z" fill="#06091D"/>
<path d="M600.613 -6.73713L633.765 8.90777L638.235 -0.564264C640.123 -4.56464 644.896 -6.2772 648.897 -4.38937C653.205 -2.35633 655.049 2.78418 653.016 7.09228L648.809 16.0071L678.618 30.0744L662.184 64.898L672.771 69.8939C676.156 71.4913 677.605 75.5303 676.007 78.9152C674.337 82.454 670.115 83.9689 666.576 82.299L656.268 77.4346L640.492 110.865L613.469 98.1127L616.624 91.4266C619.238 85.8876 616.867 79.2784 611.328 76.6644C605.789 74.0505 599.18 76.4218 596.566 81.9607L593.41 88.6469L562.487 74.0537L577.475 42.2946L587.504 47.0275C591.196 48.7701 595.603 47.1893 597.345 43.4966C599.607 38.7038 597.608 32.9828 592.854 30.6414L584.837 26.6936L600.613 -6.73713Z" fill="#06091D"/>
<path d="M639.44 113.094L609.631 99.0267L614.101 89.5547C615.989 85.5543 614.277 80.781 610.276 78.8932C605.968 76.8601 600.828 78.7044 598.795 83.0125L594.588 91.9274L561.435 76.2825L545.002 111.106L534.415 106.11C531.03 104.513 526.991 105.962 525.394 109.347C523.724 112.886 525.239 117.108 528.778 118.778L539.086 123.643L523.309 157.073L552.004 170.615L555.685 162.814C558.008 157.891 563.883 155.783 568.807 158.106C573.423 160.285 575.399 165.792 573.22 170.408L569.276 178.766L601.314 193.885L615.776 163.24L607.418 159.296C602.495 156.972 600.387 151.098 602.71 146.174C604.961 141.404 610.652 139.362 615.422 141.613L624.058 145.689L639.44 113.094Z" fill="#06091D"/>
<path d="M723.233 149.912L739.288 116.613L749.596 121.477C753.134 123.147 757.357 121.632 759.027 118.093C760.624 114.708 759.175 110.669 755.79 109.072L745.204 104.076L761.359 69.1209L727.65 53.2131L723.18 62.6851C721.292 66.6855 716.519 68.398 712.518 66.5102C708.056 64.4046 706.146 59.0805 708.252 54.6185L712.327 45.9822L680.568 30.9947L665.186 63.5896L674.101 67.7966C678.717 69.9749 680.693 75.4826 678.515 80.0984C676.191 85.022 670.316 87.1297 665.393 84.8062L657.035 80.8621L642.442 111.786L674.758 127.036L670.157 136.787C668.196 140.941 669.975 145.898 674.129 147.858C678.283 149.819 683.24 148.04 685.201 143.886L689.802 134.135L723.233 149.912Z" fill="#06091D"/>
<path d="M886.486 226.953L902.541 193.654L912.292 198.255C916.138 200.071 920.728 198.424 922.543 194.577C923.995 191.5 922.678 187.828 919.601 186.376L908.457 181.117L924.612 146.162L890.903 130.254L886.433 139.726C884.545 143.727 879.772 145.439 875.772 143.552C871.31 141.446 869.4 136.122 871.505 131.66L875.581 123.024L843.822 108.036L828.44 140.631L837.912 145.101C842.22 147.134 844.064 152.274 842.031 156.583C839.562 161.814 833.32 164.053 828.089 161.585L820.289 157.903L805.695 188.827L838.012 204.077L833.41 213.828C831.45 217.982 833.228 222.939 837.383 224.9C841.537 226.86 846.494 225.082 848.454 220.927L853.056 211.177L886.486 226.953Z" fill="#06091D"/>
<path d="M603.403 194.871L618.917 161.997L608.748 157.199C605.21 155.529 603.695 151.306 605.365 147.767C606.962 144.382 611.001 142.933 614.386 144.531L624.833 149.461L633.05 132.049L641.39 114.014L671.199 128.082L667.781 135.325C665.167 140.864 667.539 147.473 673.077 150.087C678.77 152.774 685.563 150.336 688.25 144.644L691.536 137.679L722.181 152.141L706.799 184.735L698.999 181.054C694.075 178.731 688.2 180.839 685.877 185.762C683.553 190.686 685.661 196.561 690.585 198.884L698.385 202.565L684.055 232.931L652.296 217.944L647.431 228.252C645.471 232.406 640.514 234.184 636.36 232.224C632.206 230.263 630.427 225.307 632.388 221.152L637.252 210.844L603.403 194.871Z" fill="#06091D"/>
<path d="M802.693 190.135L772.884 176.068L777.091 167.153C779.125 162.845 777.28 157.705 772.972 155.672C768.972 153.784 764.198 155.496 762.311 159.497L757.841 168.969L724.689 153.324L708.255 188.147L697.947 183.283C694.408 181.613 690.186 183.128 688.516 186.667C686.918 190.052 688.367 194.091 691.752 195.688L702.339 200.684L686.562 234.115L715.257 247.656L718.938 239.856C721.262 234.932 727.136 232.824 732.06 235.148C736.676 237.326 738.652 242.834 736.474 247.449L732.529 255.807L764.567 270.926L779.029 240.281L771.233 236.602C766.262 234.257 764.053 228.388 766.242 223.347C768.669 218.606 774.42 216.647 779.237 218.92L787.312 222.73L802.693 190.135Z" fill="#06091D"/>
<path d="M766.657 271.912L782.17 239.039L772.001 234.24C768.463 232.57 766.948 228.347 768.618 224.809C770.215 221.424 774.254 219.975 777.639 221.572L788.086 226.502L796.303 209.09L804.643 191.056L834.453 205.123L831.166 212.088C828.479 217.78 830.916 224.573 836.609 227.26C842.148 229.874 848.757 227.502 851.371 221.963L854.79 214.72L885.434 229.182L869.789 262.334L861.989 258.653C857.065 256.329 851.191 258.437 848.867 263.361C846.689 267.976 848.665 273.484 853.281 275.662L861.638 279.606L847.308 309.973L815.549 294.985L810.685 305.293C808.724 309.447 803.767 311.226 799.613 309.265C795.459 307.305 793.68 302.348 795.641 298.194L800.505 287.886L766.657 271.912Z" fill="#06091D"/>
<path d="M602 9L955.999 168.5L875.5 355.5L520.5 190.5L602 9Z" fill="#FCF0D7"/>
<path d="M602.709 11.6046L638.731 27.8482L643.372 17.5563C645.332 13.2097 650.444 11.275 654.791 13.2351C659.472 15.3459 661.556 20.8518 659.445 25.5328L655.077 35.2193L687.466 49.825L670.403 87.663L681.906 92.85C685.584 94.5086 687.221 98.8346 685.562 102.513C683.828 106.358 679.306 108.069 675.461 106.335L664.261 101.285L647.88 137.609L618.518 124.368L621.794 117.104C624.508 111.085 621.829 104.006 615.811 101.292C609.792 98.5782 602.713 101.257 600 107.275L596.723 114.54L563.123 99.3887L578.685 64.8804L589.582 69.7945C593.594 71.6038 598.314 69.8179 600.123 65.8056C602.471 60.598 600.21 54.4693 595.042 52.0345L586.329 47.929L602.709 11.6046Z" fill="#FF6D6A"/>
<path d="M780.093 91.5945L816.115 107.838L820.756 97.5463C822.716 93.1996 827.829 91.2649 832.175 93.225C836.856 95.3359 838.94 100.842 836.829 105.523L832.461 115.209L864.85 129.815L847.787 167.653L859.29 172.84C862.968 174.499 864.605 178.825 862.947 182.503C861.213 186.348 856.69 188.059 852.845 186.325L841.645 181.275L825.265 217.599L795.297 204.085L798.573 196.821C801.287 190.802 798.608 183.723 792.59 181.009C786.906 178.446 780.22 180.976 777.657 186.66L774.108 194.53L740.508 179.379L755.796 145.476L765.482 149.844C770.498 152.105 776.397 149.873 778.659 144.858C781.146 139.341 778.691 132.852 773.174 130.364L764.395 126.405L780.093 91.5945Z" fill="#28D2C5"/>
<path d="M646.789 140.031L614.399 125.425L619.04 115.133C621 110.787 619.066 105.674 614.719 103.714C610.038 101.603 604.532 103.686 602.421 108.367L598.053 118.054L562.032 101.81L544.969 139.648L533.466 134.461C529.788 132.803 525.462 134.44 523.804 138.118C522.07 141.963 523.781 146.485 527.626 148.219L538.826 153.27L522.446 189.594L553.625 203.654L557.447 195.178C559.859 189.829 566.152 187.448 571.501 189.86C576.517 192.122 578.749 198.021 576.487 203.036L572.392 212.117L607.203 227.815L622.218 194.517L613.137 190.422C607.788 188.01 605.406 181.718 607.819 176.368C610.156 171.185 616.252 168.879 621.434 171.216L630.818 175.447L646.789 140.031Z" fill="#FF8D6B"/>
<path d="M737.783 178.15L754.466 141.962L765.666 147.013C769.511 148.747 774.034 147.035 775.768 143.19C777.427 139.512 775.789 135.186 772.112 133.528L760.609 128.34L777.369 90.366L740.742 73.8493L736.101 84.1412C734.14 88.4879 729.028 90.4225 724.681 88.4625C719.833 86.2762 717.675 80.5737 719.861 75.7255L724.093 66.3417L689.585 50.7805L673.614 86.1969L683.301 90.5649C688.316 92.8265 690.548 98.7257 688.287 103.741C685.874 109.091 679.582 111.472 674.232 109.06L665.151 104.964L649.999 138.565L685.113 154.399L680.335 164.993C678.3 169.507 680.309 174.817 684.823 176.852C689.337 178.887 694.646 176.878 696.681 172.365L701.459 161.77L737.783 178.15Z" fill="#FF8D6B"/>
<path d="M915.168 258.14L931.851 221.952L942.446 226.73C946.625 228.614 951.541 226.754 953.426 222.575C954.934 219.231 953.445 215.298 950.102 213.791L937.994 208.33L954.754 170.356L918.126 153.839L913.485 164.131C911.525 168.478 906.413 170.413 902.066 168.452C897.218 166.266 895.06 160.564 897.246 155.715L901.478 146.332L866.969 130.77L850.999 166.187L861.291 170.828C865.972 172.939 868.055 178.445 865.944 183.126C863.381 188.81 856.695 191.34 851.011 188.777L842.536 184.954L827.384 218.555L862.498 234.389L857.72 244.983C855.685 249.497 857.694 254.807 862.208 256.842C866.721 258.877 872.031 256.868 874.066 252.355L878.844 241.76L915.168 258.14Z" fill="#ECA903"/>
<path d="M609.473 228.839L625.58 193.12L614.532 188.137C610.687 186.403 608.975 181.881 610.709 178.036C612.368 174.358 616.694 172.721 620.372 174.379L631.723 179.498L640.254 160.579L648.907 140.986L681.297 155.592L677.748 163.462C675.034 169.481 677.713 176.56 683.731 179.274C689.917 182.063 697.192 179.31 699.982 173.124L703.394 165.557L736.692 180.572L720.721 215.988L712.245 212.166C706.895 209.754 700.603 212.135 698.191 217.485C695.778 222.834 698.159 229.127 703.509 231.539L711.985 235.361L697.106 268.356L662.598 252.795L657.547 263.995C655.512 268.509 650.203 270.518 645.689 268.482C641.175 266.447 639.166 261.137 641.201 256.624L646.252 245.424L609.473 228.839Z" fill="#ECA903"/>
<path d="M824.173 220.021L791.784 205.415L796.152 195.729C798.263 191.048 796.179 185.542 791.498 183.431C787.151 181.471 782.039 183.405 780.079 187.752L775.438 198.044L739.416 181.8L722.353 219.638L711.153 214.588C707.308 212.854 702.785 214.565 701.051 218.41C699.393 222.088 701.03 226.414 704.708 228.073L716.211 233.26L699.83 269.584L731.009 283.644L734.831 275.168C737.243 269.819 743.536 267.437 748.886 269.85C753.901 272.112 756.133 278.011 753.872 283.026L749.777 292.107L784.587 307.805L799.603 274.507L791.132 270.688C785.731 268.252 783.24 261.968 785.506 256.494C788.033 251.34 794.195 249.121 799.429 251.481L808.202 255.437L824.173 220.021Z" fill="#FF6D6A"/>
<path d="M296.625 31.1302L317.554 54.0931L324.115 48.1134C326.886 45.588 331.179 45.7869 333.705 48.5578C336.424 51.5418 336.21 56.1656 333.226 58.8853L327.051 64.5132L345.87 85.1605L321.749 107.145L328.432 114.477C330.569 116.822 330.401 120.455 328.056 122.592C325.605 124.826 321.807 124.65 319.573 122.199L313.065 115.059L289.91 136.164L272.498 117.06L277.129 112.839C280.966 109.342 281.241 103.397 277.745 99.5609C274.442 95.9374 268.828 95.6772 265.204 98.9797L260.187 103.552L240.665 82.1333L262.277 62.4355L267.905 68.6104C270.819 71.8076 275.773 72.0372 278.97 69.1232C282.487 65.9179 282.74 60.4684 279.535 56.9516L274.434 51.3556L296.625 31.1302Z" fill="#06091D"/>
<path d="M282.875 11.5263L281.977 10.5405L280.991 11.4389L254.862 35.253L253.876 36.1515L254.775 37.1373L260.78 43.7262C264.058 47.3227 263.8 52.8954 260.203 56.1733C256.983 59.1081 251.994 58.8769 249.059 55.6569L242.433 48.3863L241.534 47.4005L240.548 48.299L215.101 71.4918L214.116 72.3903L215.014 73.3761L238 98.5958L238.898 99.5816L239.884 98.6832L245.791 93.2991C249.513 89.9068 255.281 90.1741 258.673 93.896C262.294 97.8689 262.009 104.025 258.036 107.646L252.583 112.616L251.597 113.514L252.495 114.5L272.996 136.993L273.895 137.979L274.881 137.081L301.159 113.13L307.923 120.55C311.049 123.981 316.365 124.227 319.796 121.101C323.101 118.088 323.338 112.967 320.326 109.662L313.355 102.014L340.77 77.0278L341.756 76.1293L340.857 75.1435L319.598 51.8184L325.883 46.0904C329.941 42.3919 330.232 36.1041 326.534 32.0462C323.064 28.2392 317.165 27.9658 313.358 31.4356L306.619 37.5778L282.875 11.5263Z" fill="#28D2C5" stroke="#FCF0D7" stroke-width="2.66764"/>
</g>
<defs>
<clipPath id="clip0_840_128">
<rect width="922" height="211" rx="15" fill="white"/>
</clipPath>
</defs>
</svg>
